PathFileType	4	(X/Y/Z)	58_2_65_p1_0-189.trc
DataRate	CameraRate	NumFrames	NumMarkers	Units	OrigDataRate	OrigDataStartFrame	OrigNumFrames
35.0	35.0	6	27	m	35.0	95	190
Frame#	Time	RHip			RKnee			RAnkle			RBigToe			RSmallToe			RHeel			LHip			LKnee			LAnkle			LBigToe			LSmallToe			LHeel			Neck			Head			Nose			RShoulder			RElbow			RWrist			RThumb			RIndex			RPinky			LShoulder			LElbow			LWrist			LThumb			LIndex			LPinky			
		X1	Y1	Z1	X2	Y2	Z2	X3	Y3	Z3	X4	Y4	Z4	X5	Y5	Z5	X6	Y6	Z6	X7	Y7	Z7	X8	Y8	Z8	X9	Y9	Z9	X10	Y10	Z10	X11	Y11	Z11	X12	Y12	Z12	X13	Y13	Z13	X14	Y14	Z14	X15	Y15	Z15	X16	Y16	Z16	X17	Y17	Z17	X18	Y18	Z18	X19	Y19	Z19	X20	Y20	Z20	X21	Y21	Z21	X22	Y22	Z22	X23	Y23	Z23	X24	Y24	Z24	X25	Y25	Z25	X26	Y26	Z26	X27	Y27	Z27	
95	2.7142857142857144	0.3495355459158719	0.5025839894370207	0.9776438410002493	0.3460021547265781	0.639617774631845	1.4538710689517014	0.342555197406831	0.7579539830426963	1.8874968554012572	0.28550549842145134	0.5060419109052873	1.9353040958036472	0.3619716867634382	0.5423164308570221	1.928341621974686	0.3035944360429257	0.8552326416418542	1.9391094861469558	0.15308871166246746	0.47174807154590975	0.9771124854927455	0.13787066258208672	0.6337889469626298	1.463527349298566	0.11390519470234806	0.7473850774216058	1.8925169882548682	0.1278478309072393	0.5258571135779273	1.9283478830000957	0.0701581380154795	0.5945140640904889	1.9458186942355817	0.12601582001535838	0.8592263148506823	1.942176317263478	0.2567560985192546	0.35543660669707194	0.4264645083041278	0.2882166822890808	0.23603823074371205	0.2062078322152461	0.28088410107367695	0.22972593823830476	0.3430795745839564	0.4004373678862792	0.3558121587726543	0.5113224252475698	0.43141500870678207	0.505020407173915	0.7829191135395221	0.47026119290060253	0.45919249142714735	1.0356618715401076	0.42060247321851246	0.4399500801273623	1.1517549451444065	0.4331609337197143	0.39940737913853497	1.1761947680364881	0.45269933390515843	0.49288968990800325	1.1873376097215163	0.11525256761631776	0.3722097059844182	0.49630245092731246	0.056662658503279825	0.4474455566262847	0.7564611812465393	0.018134580230401917	0.45651839092140944	1.0020451555773446	0.05941721269427664	0.44813343955193663	1.1149788408970618	0.02225983410408019	0.42132081725412607	1.1358367116490944	-0.009307555402128348	0.4521015816127686	1.1332321220242083
96	2.742857142857143	0.3450384324869983	0.5021932402092428	0.9779341601901668	0.3469190197908141	0.6427314823155803	1.458979852938809	0.342663658008333	0.7580853215059198	1.8875483329129399	0.28987950611360863	0.5204200359493992	1.9415151345408195	0.36194423745938015	0.5461132572609377	1.9341216953293376	0.30742078076791873	0.8573499636036899	1.9393020133715055	0.14820395594946506	0.4859634947217017	0.9824710521121597	0.13766685622338345	0.6338518058213467	1.4632095647909797	0.1088253014869046	0.74740624706119	1.8876523179262938	0.12632647965235652	0.554477707659178	1.941185083213557	0.07000895617885708	0.5953004207528414	1.9461012339580706	0.12660038084202963	0.8384559684971205	1.9330657430384663	0.2525194955975846	0.35522528713506046	0.42644605069298835	0.28388845466874174	0.23476948999850702	0.20650865091265946	0.2731593855770495	0.2188066635403495	0.3415168846261266	0.4002602763606154	0.3554427330808683	0.511263820456533	0.43121039448070236	0.5061063666716633	0.7792560379738226	0.46984490834251	0.46025514347426794	1.0324421320118433	0.4201968221609831	0.4425743271380809	1.1449581230617425	0.43293562526387097	0.4001802408805853	1.1686975395480197	0.44980088454899025	0.5112041838588292	1.1900377091273908	0.10659875197270627	0.3842080821458793	0.49624077447565274	0.056408349051368316	0.4486709420112838	0.7603414918947062	0.018386410457471143	0.4556291070579385	1.005700487186083	0.05902730443143143	0.44853544564650355	1.1148867104311326	0.022018806992770982	0.42124980853956784	1.135893123732352	-0.010351207385327122	0.4543395878192602	1.1363413367679673
97	2.7714285714285714	0.34564164224050303	0.5044186462696996	0.9820538706294142	0.3469160629943439	0.6427594088406543	1.4589570958569416	0.3426971090355341	0.7579833569818839	1.8875964398040734	0.290010276223996	0.5205838071860732	1.941674583023255	0.36207981698432046	0.5461279655138886	1.9342760420348575	0.3076451768157193	0.8575159435211155	1.9397592742780865	0.14820062444210266	0.48598376457044756	0.9825218173855061	0.1376295642258288	0.633921183579813	1.463220696238513	0.10889177129838415	0.747060746058196	1.887565400033011	0.1271550378846722	0.5573655956314054	1.9463313681435632	0.06991869194044618	0.5954655764671763	1.9460528205694463	0.12766330407826956	0.8369266442617195	1.9276330509124608	0.252317946117468	0.3547641090048287	0.4264046207967575	0.2795963383482921	0.23213983880182568	0.20340313167756255	0.26588678755310163	0.21858839422285356	0.34496718236394597	0.3999749048050323	0.3538340381945692	0.5109403399753506	0.43143001626191896	0.5048225490084981	0.7757536803318875	0.46967410090138617	0.45991731631971117	1.032340622222353	0.42019089356952605	0.4426937397768697	1.1449685763341466	0.43220189191593916	0.40131496729260996	1.1717930670135732	0.45018643287793564	0.5097873247079951	1.1862959028485531	0.10644470269600832	0.3838733170295798	0.49631038487028745	0.05376496163956722	0.4368229022351559	0.7598914103628126	0.018347132726308904	0.4556661098575141	1.0057472705932453	0.055120948238477525	0.44734774396398264	1.1147864054313756	0.015604888095115593	0.40570672255788504	1.1373608945398768	-0.01506018934870274	0.45359956248699557	1.1363265532920528
98	2.8	0.34562700641830746	0.5042430067797916	0.9820229707324551	0.3468798576080787	0.6426867148381421	1.4589183472331007	0.34157784767367577	0.75510476980606	1.8817400895502183	0.2906171403170369	0.5221216786631357	1.9423834048449138	0.3624994766808654	0.5501020915666069	1.9313151479428703	0.3076782152750766	0.8577647070594235	1.9398439640897143	0.14865312037093795	0.4846477522606448	0.9792688363920146	0.13763453634291187	0.6337665202339945	1.4632485677874267	0.10884363974386717	0.7473805018678018	1.8878360646036452	0.1263000831339476	0.5545614392833594	1.941176698144445	0.06984419730431952	0.5954871263721959	1.945954562540397	0.13101234409487536	0.8405534959865993	1.9338563054020446	0.24831658465289908	0.3542067994918127	0.4266594872988465	0.2722048629465562	0.2224299810990626	0.20870562641073417	0.25860057812766835	0.20704566968055924	0.34634349216564925	0.3917733840522941	0.3417540755479659	0.5112373494750694	0.4313575426657538	0.5049610020867445	0.7756761797705107	0.46603793872381577	0.45038207061383595	1.0348036558529388	0.41595758355986734	0.441728170946695	1.1481142818403554	0.43199098125806407	0.40129286936887976	1.1718461071420854	0.45078876992417033	0.5077532395824716	1.1915192169370186	0.10223929140336914	0.38295729343777213	0.49664611422417937	0.05680558276151315	0.4479474252261749	0.7647206524073773	0.018207373777605836	0.4558556279921561	1.0059383390159908	0.05493856446420981	0.4473573466643649	1.1147767470091197	0.015548522727023844	0.4055890400397796	1.1375614483317213	-0.014426578517663767	0.45189221915162375	1.1333325972311872
99	2.8285714285714287	0.34558197321496303	0.5044653916967828	0.9822431873929623	0.34586179833030894	0.6400833549359913	1.4541755483003598	0.3416269726143682	0.755011742584178	1.881853849132193	0.2903302201073259	0.521280126673447	1.9420733970742126	0.3663425551596519	0.5598962137603846	1.940368234533253	0.3076670793704495	0.8577383026708624	1.939709740383916	0.14817265174144803	0.4856782402891445	0.9828002504135962	0.13843678459737052	0.632296516913023	1.459183607479191	0.10887206436377887	0.7472725375894854	1.8877082499524367	0.1232457022595556	0.5408407038815775	1.9351498558644569	0.06983641748422065	0.5953414367346772	1.945861012296063	0.1308954566132794	0.8408215597454267	1.9338513080444586	0.24804786400351914	0.35466626052819533	0.42673231956352703	0.26423610605514775	0.2328829653784852	0.2079850952109446	0.2549147141336434	0.19699217865435956	0.347434127401119	0.38842000741431376	0.35583804327171187	0.511190014580817	0.4315655461824021	0.5038620764828912	0.7795624384991174	0.46294051633762895	0.4643354499606657	1.0370068708491944	0.408047309356889	0.4437846851559417	1.1487633801276975	0.4324057759483897	0.3998289272815786	1.168444028602463	0.4506893790294562	0.5084330590739871	1.1911687809362619	0.09317522993218703	0.4085152534390275	0.5029673581814258	0.0568176308496	0.4482629305052854	0.7648946292012	0.008132245794811182	0.48142336624162196	1.0138871884554745	0.04297778726518691	0.4466995373958156	1.119295656262846	0.015268706610003267	0.4055316211754945	1.1378173808035055	-0.02010255600879496	0.46649062741821584	1.1389255268433265
100	2.857142857142857	0.3451717596512018	0.5054543813647877	0.9859234257936045	0.34597799510438104	0.640251540485543	1.4544026340985692	0.3426963390802421	0.7580632893457658	1.887621681420998	0.2899307231147152	0.5198420839768014	1.941483446185289	0.36175876530019013	0.5465292630098098	1.9301589445762637	0.3075081967885184	0.8570501285893077	1.9392517792564816	0.1481016457808206	0.4857989296345892	0.9828424002558539	0.13842305533180824	0.6326072044046013	1.459273842922788	0.10886464324782931	0.7473256106351615	1.8877468843690104	0.12323789112969873	0.5404889313478382	1.9350213689369906	0.06982684024494791	0.5951006449105831	1.945728701103275	0.13074916517538637	0.840855112660583	1.9334661359793108	0.2478793243361553	0.35484823330263715	0.42699327053260855	0.25607594268408806	0.24268046869188686	0.20032204498388204	0.25157507176921273	0.1866152100768054	0.34844265797653773	0.384906685403862	0.36986392110354227	0.513991397318278	0.427193417312506	0.4922428463187588	0.7824606714236205	0.462944122771825	0.4642510608804378	1.0369767103835665	0.4082947800222419	0.4437847091418441	1.14887391986382	0.43251850051407353	0.3997744933941075	1.168518930832656	0.4537719603391428	0.4940003562772626	1.1876478933560048	0.08878164036396234	0.40742653063824036	0.5033353806963932	0.05461507228200031	0.4377995401493234	0.7678586139759802	-0.0007585862720811405	0.4929883064309649	1.0196361631305872	0.04284232513537544	0.4469715455491772	1.1194858869150521	0.01304265516452912	0.39307066715935157	1.1356531523270927	-0.020230433283583458	0.46738728709280913	1.1392116488067692
